<svg width="19" height="145" viewBox="0 0 26 145" fill="none" xmlns="http://www.w3.org/2000/svg">
<path d="M0.271484 8C0.271484 12.4183 3.85321 16 8.27148 16C12.6898 16 16.2715 12.4183 16.2715 8C16.2715 3.58172 12.6898 0 8.27148 0C3.85321 0 0.271484 3.58172 0.271484 8ZM2.02907 144.967C2.02907 149.385 5.6108 152.967 10.0291 152.967C14.4474 152.967 18.0291 149.385 18.0291 144.967C18.0291 140.548 14.4474 136.967 10.0291 136.967C5.6108 136.967 2.02907 140.548 2.02907 144.967ZM6.77161 8.01925L8.5292 144.986L11.529 144.947L9.77136 7.98075L6.77161 8.01925Z" fill="#0A4B57"/>
</svg>
